<mxfile host="app.diagrams.net" agent="Mozilla/5.0 (Macintosh; Intel Mac OS X 10_15_7) AppleWebKit/605.1.15 (KHTML, like Gecko) Version/18.1 Safari/605.1.15" version="24.8.3">
  <diagram name="Page-1" id="DrJ4Jgo7Ixu42RDF0Wzw">
    <mxGraphModel dx="5970" dy="5029" grid="1" gridSize="10" guides="1" tooltips="1" connect="1" arrows="1" fold="1" page="1" pageScale="1" pageWidth="827" pageHeight="1169" math="0" shadow="0">
      <root>
        <mxCell id="0" />
        <mxCell id="1" parent="0" />
        <mxCell id="cWtNn_g0kMUpJ86B1lAH-1" value="Extension Module" style="rounded=1;whiteSpace=wrap;html=1;fillColor=#c0c0c0;fontColor=#333333;strokeColor=#666666;verticalAlign=bottom;labelPosition=center;verticalLabelPosition=middle;align=center;spacingLeft=400;fontStyle=1;fontSize=14;" vertex="1" parent="1">
          <mxGeometry x="4489" y="273" width="561" height="117" as="geometry" />
        </mxCell>
        <mxCell id="cWtNn_g0kMUpJ86B1lAH-2" value="Worker thread 2" style="rounded=1;whiteSpace=wrap;html=1;fontFamily=Helvetica;fontSize=11;fontColor=default;labelBackgroundColor=default;fillColor=none;fillStyle=auto;strokeColor=#3399FF;verticalAlign=bottom;" vertex="1" parent="1">
          <mxGeometry x="1507.5" y="516" width="85" height="74" as="geometry" />
        </mxCell>
        <mxCell id="cWtNn_g0kMUpJ86B1lAH-3" value="Mapping Table" style="rounded=1;whiteSpace=wrap;html=1;fillColor=none;verticalAlign=bottom;" vertex="1" parent="1">
          <mxGeometry x="1739.25" y="80.5" width="100.5" height="99" as="geometry" />
        </mxCell>
        <mxCell id="cWtNn_g0kMUpJ86B1lAH-4" value="" style="edgeStyle=orthogonalEdgeStyle;shape=connector;rounded=0;orthogonalLoop=1;jettySize=auto;html=1;strokeColor=#3399FF;align=center;verticalAlign=middle;fontFamily=Helvetica;fontSize=11;fontColor=default;labelBackgroundColor=default;endArrow=classic;" edge="1" parent="1" source="cWtNn_g0kMUpJ86B1lAH-5" target="cWtNn_g0kMUpJ86B1lAH-7">
          <mxGeometry relative="1" as="geometry" />
        </mxCell>
        <mxCell id="cWtNn_g0kMUpJ86B1lAH-5" value="seed URLs" style="rounded=1;whiteSpace=wrap;html=1;fontFamily=Helvetica;fontSize=11;fontColor=default;labelBackgroundColor=default;" vertex="1" parent="1">
          <mxGeometry x="130" y="100" width="120" height="60" as="geometry" />
        </mxCell>
        <mxCell id="cWtNn_g0kMUpJ86B1lAH-6" value="" style="edgeStyle=orthogonalEdgeStyle;shape=connector;rounded=0;orthogonalLoop=1;jettySize=auto;html=1;strokeColor=#3399FF;align=center;verticalAlign=middle;fontFamily=Helvetica;fontSize=11;fontColor=default;labelBackgroundColor=default;endArrow=classic;" edge="1" parent="1" source="cWtNn_g0kMUpJ86B1lAH-7" target="cWtNn_g0kMUpJ86B1lAH-10">
          <mxGeometry relative="1" as="geometry" />
        </mxCell>
        <mxCell id="cWtNn_g0kMUpJ86B1lAH-7" value="URL Frontier" style="rounded=1;whiteSpace=wrap;html=1;fontFamily=Helvetica;fontSize=11;fontColor=default;labelBackgroundColor=default;" vertex="1" parent="1">
          <mxGeometry x="350" y="100" width="120" height="60" as="geometry" />
        </mxCell>
        <mxCell id="cWtNn_g0kMUpJ86B1lAH-8" value="" style="edgeStyle=orthogonalEdgeStyle;shape=connector;rounded=0;orthogonalLoop=1;jettySize=auto;html=1;strokeColor=#3399FF;align=center;verticalAlign=middle;fontFamily=Helvetica;fontSize=11;fontColor=default;labelBackgroundColor=default;endArrow=classic;" edge="1" parent="1" source="cWtNn_g0kMUpJ86B1lAH-10" target="cWtNn_g0kMUpJ86B1lAH-11">
          <mxGeometry relative="1" as="geometry" />
        </mxCell>
        <mxCell id="cWtNn_g0kMUpJ86B1lAH-9" value="" style="edgeStyle=orthogonalEdgeStyle;shape=connector;rounded=0;orthogonalLoop=1;jettySize=auto;html=1;strokeColor=#3399FF;align=center;verticalAlign=middle;fontFamily=Helvetica;fontSize=11;fontColor=default;labelBackgroundColor=default;endArrow=classic;" edge="1" parent="1" source="cWtNn_g0kMUpJ86B1lAH-10" target="cWtNn_g0kMUpJ86B1lAH-13">
          <mxGeometry relative="1" as="geometry" />
        </mxCell>
        <mxCell id="cWtNn_g0kMUpJ86B1lAH-10" value="HTML Downloader" style="rounded=1;whiteSpace=wrap;html=1;fontFamily=Helvetica;fontSize=11;fontColor=default;labelBackgroundColor=default;" vertex="1" parent="1">
          <mxGeometry x="570" y="100" width="120" height="60" as="geometry" />
        </mxCell>
        <mxCell id="cWtNn_g0kMUpJ86B1lAH-11" value="DNS Resolver" style="rounded=1;whiteSpace=wrap;html=1;fontFamily=Helvetica;fontSize=11;fontColor=default;labelBackgroundColor=default;" vertex="1" parent="1">
          <mxGeometry x="570" y="-10" width="120" height="60" as="geometry" />
        </mxCell>
        <mxCell id="cWtNn_g0kMUpJ86B1lAH-12" value="" style="edgeStyle=orthogonalEdgeStyle;shape=connector;rounded=0;orthogonalLoop=1;jettySize=auto;html=1;strokeColor=#3399FF;align=center;verticalAlign=middle;fontFamily=Helvetica;fontSize=11;fontColor=default;labelBackgroundColor=default;endArrow=classic;" edge="1" parent="1" source="cWtNn_g0kMUpJ86B1lAH-13" target="cWtNn_g0kMUpJ86B1lAH-16">
          <mxGeometry relative="1" as="geometry" />
        </mxCell>
        <mxCell id="cWtNn_g0kMUpJ86B1lAH-13" value="Content Parser" style="rounded=1;whiteSpace=wrap;html=1;fontFamily=Helvetica;fontSize=11;fontColor=default;labelBackgroundColor=default;" vertex="1" parent="1">
          <mxGeometry x="760" y="100" width="120" height="60" as="geometry" />
        </mxCell>
        <mxCell id="cWtNn_g0kMUpJ86B1lAH-14" value="" style="edgeStyle=orthogonalEdgeStyle;shape=connector;rounded=0;orthogonalLoop=1;jettySize=auto;html=1;strokeColor=#3399FF;align=center;verticalAlign=middle;fontFamily=Helvetica;fontSize=11;fontColor=default;labelBackgroundColor=default;endArrow=classic;startArrow=classic;startFill=1;" edge="1" parent="1" source="cWtNn_g0kMUpJ86B1lAH-16" target="cWtNn_g0kMUpJ86B1lAH-17">
          <mxGeometry relative="1" as="geometry" />
        </mxCell>
        <mxCell id="cWtNn_g0kMUpJ86B1lAH-15" value="" style="edgeStyle=orthogonalEdgeStyle;shape=connector;rounded=0;orthogonalLoop=1;jettySize=auto;html=1;strokeColor=#3399FF;align=center;verticalAlign=middle;fontFamily=Helvetica;fontSize=11;fontColor=default;labelBackgroundColor=default;endArrow=classic;" edge="1" parent="1" source="cWtNn_g0kMUpJ86B1lAH-16" target="cWtNn_g0kMUpJ86B1lAH-19">
          <mxGeometry relative="1" as="geometry" />
        </mxCell>
        <mxCell id="cWtNn_g0kMUpJ86B1lAH-16" value="Content Seen?" style="rounded=1;whiteSpace=wrap;html=1;fontFamily=Helvetica;fontSize=11;fontColor=default;labelBackgroundColor=default;" vertex="1" parent="1">
          <mxGeometry x="960" y="100" width="120" height="60" as="geometry" />
        </mxCell>
        <mxCell id="cWtNn_g0kMUpJ86B1lAH-17" value="Content storage" style="shape=cylinder3;whiteSpace=wrap;html=1;boundedLbl=1;backgroundOutline=1;size=15;fontFamily=Helvetica;fontSize=11;fontColor=default;labelBackgroundColor=default;" vertex="1" parent="1">
          <mxGeometry x="990" y="-30" width="60" height="80" as="geometry" />
        </mxCell>
        <mxCell id="cWtNn_g0kMUpJ86B1lAH-18" value="" style="edgeStyle=orthogonalEdgeStyle;shape=connector;rounded=0;orthogonalLoop=1;jettySize=auto;html=1;strokeColor=#3399FF;align=center;verticalAlign=middle;fontFamily=Helvetica;fontSize=11;fontColor=default;labelBackgroundColor=default;endArrow=classic;" edge="1" parent="1" source="cWtNn_g0kMUpJ86B1lAH-19" target="cWtNn_g0kMUpJ86B1lAH-21">
          <mxGeometry relative="1" as="geometry" />
        </mxCell>
        <mxCell id="cWtNn_g0kMUpJ86B1lAH-19" value="Link Extractor" style="rounded=1;whiteSpace=wrap;html=1;fontFamily=Helvetica;fontSize=11;fontColor=default;labelBackgroundColor=default;" vertex="1" parent="1">
          <mxGeometry x="960" y="220" width="120" height="60" as="geometry" />
        </mxCell>
        <mxCell id="cWtNn_g0kMUpJ86B1lAH-20" value="" style="edgeStyle=orthogonalEdgeStyle;shape=connector;rounded=0;orthogonalLoop=1;jettySize=auto;html=1;strokeColor=#3399FF;align=center;verticalAlign=middle;fontFamily=Helvetica;fontSize=11;fontColor=default;labelBackgroundColor=default;endArrow=classic;" edge="1" parent="1" source="cWtNn_g0kMUpJ86B1lAH-21" target="cWtNn_g0kMUpJ86B1lAH-24">
          <mxGeometry relative="1" as="geometry" />
        </mxCell>
        <mxCell id="cWtNn_g0kMUpJ86B1lAH-21" value="URL Filter" style="rounded=1;whiteSpace=wrap;html=1;fontFamily=Helvetica;fontSize=11;fontColor=default;labelBackgroundColor=default;" vertex="1" parent="1">
          <mxGeometry x="960" y="340" width="120" height="60" as="geometry" />
        </mxCell>
        <mxCell id="cWtNn_g0kMUpJ86B1lAH-22" value="" style="edgeStyle=orthogonalEdgeStyle;shape=connector;rounded=0;orthogonalLoop=1;jettySize=auto;html=1;strokeColor=#3399FF;align=center;verticalAlign=middle;fontFamily=Helvetica;fontSize=11;fontColor=default;labelBackgroundColor=default;endArrow=classic;startArrow=classic;startFill=1;" edge="1" parent="1" source="cWtNn_g0kMUpJ86B1lAH-24" target="cWtNn_g0kMUpJ86B1lAH-25">
          <mxGeometry relative="1" as="geometry" />
        </mxCell>
        <mxCell id="cWtNn_g0kMUpJ86B1lAH-23" style="edgeStyle=orthogonalEdgeStyle;shape=connector;rounded=0;orthogonalLoop=1;jettySize=auto;html=1;strokeColor=#3399FF;align=center;verticalAlign=middle;fontFamily=Helvetica;fontSize=11;fontColor=default;labelBackgroundColor=default;endArrow=classic;entryX=0.5;entryY=1;entryDx=0;entryDy=0;" edge="1" parent="1" source="cWtNn_g0kMUpJ86B1lAH-24" target="cWtNn_g0kMUpJ86B1lAH-7">
          <mxGeometry relative="1" as="geometry">
            <mxPoint x="440" y="200.00000000000023" as="targetPoint" />
          </mxGeometry>
        </mxCell>
        <mxCell id="cWtNn_g0kMUpJ86B1lAH-24" value="URL Seen?" style="rounded=1;whiteSpace=wrap;html=1;fontFamily=Helvetica;fontSize=11;fontColor=default;labelBackgroundColor=default;" vertex="1" parent="1">
          <mxGeometry x="960" y="460" width="120" height="60" as="geometry" />
        </mxCell>
        <mxCell id="cWtNn_g0kMUpJ86B1lAH-25" value="URL&lt;div&gt;storage&lt;/div&gt;" style="shape=cylinder3;whiteSpace=wrap;html=1;boundedLbl=1;backgroundOutline=1;size=15;fontFamily=Helvetica;fontSize=11;fontColor=default;labelBackgroundColor=default;" vertex="1" parent="1">
          <mxGeometry x="990" y="560" width="60" height="80" as="geometry" />
        </mxCell>
        <mxCell id="cWtNn_g0kMUpJ86B1lAH-26" style="rounded=0;orthogonalLoop=1;jettySize=auto;html=1;" edge="1" parent="1" source="cWtNn_g0kMUpJ86B1lAH-30" target="cWtNn_g0kMUpJ86B1lAH-42">
          <mxGeometry relative="1" as="geometry" />
        </mxCell>
        <mxCell id="cWtNn_g0kMUpJ86B1lAH-27" style="edgeStyle=orthogonalEdgeStyle;rounded=0;orthogonalLoop=1;jettySize=auto;html=1;" edge="1" parent="1" source="cWtNn_g0kMUpJ86B1lAH-30" target="cWtNn_g0kMUpJ86B1lAH-32">
          <mxGeometry relative="1" as="geometry" />
        </mxCell>
        <mxCell id="cWtNn_g0kMUpJ86B1lAH-28" style="rounded=0;orthogonalLoop=1;jettySize=auto;html=1;entryX=0.5;entryY=0;entryDx=0;entryDy=0;" edge="1" parent="1" source="cWtNn_g0kMUpJ86B1lAH-30" target="cWtNn_g0kMUpJ86B1lAH-37">
          <mxGeometry relative="1" as="geometry" />
        </mxCell>
        <mxCell id="cWtNn_g0kMUpJ86B1lAH-29" style="edgeStyle=orthogonalEdgeStyle;rounded=0;orthogonalLoop=1;jettySize=auto;html=1;entryX=0;entryY=0.5;entryDx=0;entryDy=0;" edge="1" parent="1" source="cWtNn_g0kMUpJ86B1lAH-30" target="cWtNn_g0kMUpJ86B1lAH-3">
          <mxGeometry relative="1" as="geometry" />
        </mxCell>
        <mxCell id="cWtNn_g0kMUpJ86B1lAH-30" value="Queue router" style="rounded=1;whiteSpace=wrap;html=1;fontFamily=Helvetica;fontSize=11;fontColor=default;labelBackgroundColor=default;fillColor=#FFFFFF;fillStyle=auto;strokeColor=#3399FF;" vertex="1" parent="1">
          <mxGeometry x="1490" y="100" width="120" height="60" as="geometry" />
        </mxCell>
        <mxCell id="cWtNn_g0kMUpJ86B1lAH-31" value="" style="sketch=0;outlineConnect=0;fontColor=#232F3E;gradientColor=none;fillColor=#3399FF;strokeColor=#007FFF;dashed=0;verticalLabelPosition=bottom;verticalAlign=top;align=center;html=1;fontSize=12;fontStyle=0;aspect=fixed;pointerEvents=1;shape=mxgraph.aws4.generic_database;" vertex="1" parent="1">
          <mxGeometry x="1760" y="80.5" width="59" height="78" as="geometry" />
        </mxCell>
        <mxCell id="cWtNn_g0kMUpJ86B1lAH-32" value="" style="rounded=0;whiteSpace=wrap;html=1;" vertex="1" parent="1">
          <mxGeometry x="1515" y="230" width="70" height="30" as="geometry" />
        </mxCell>
        <mxCell id="cWtNn_g0kMUpJ86B1lAH-33" value="" style="rounded=0;whiteSpace=wrap;html=1;" vertex="1" parent="1">
          <mxGeometry x="1515" y="260" width="70" height="30" as="geometry" />
        </mxCell>
        <mxCell id="cWtNn_g0kMUpJ86B1lAH-34" value="" style="rounded=0;whiteSpace=wrap;html=1;" vertex="1" parent="1">
          <mxGeometry x="1515" y="290" width="70" height="30" as="geometry" />
        </mxCell>
        <mxCell id="cWtNn_g0kMUpJ86B1lAH-35" style="edgeStyle=orthogonalEdgeStyle;rounded=0;orthogonalLoop=1;jettySize=auto;html=1;entryX=0.5;entryY=0;entryDx=0;entryDy=0;" edge="1" parent="1" source="cWtNn_g0kMUpJ86B1lAH-36" target="cWtNn_g0kMUpJ86B1lAH-54">
          <mxGeometry relative="1" as="geometry" />
        </mxCell>
        <mxCell id="cWtNn_g0kMUpJ86B1lAH-36" value="" style="rounded=0;whiteSpace=wrap;html=1;" vertex="1" parent="1">
          <mxGeometry x="1515" y="320" width="70" height="30" as="geometry" />
        </mxCell>
        <mxCell id="cWtNn_g0kMUpJ86B1lAH-37" value="" style="rounded=0;whiteSpace=wrap;html=1;" vertex="1" parent="1">
          <mxGeometry x="1654" y="230" width="70" height="30" as="geometry" />
        </mxCell>
        <mxCell id="cWtNn_g0kMUpJ86B1lAH-38" value="" style="rounded=0;whiteSpace=wrap;html=1;" vertex="1" parent="1">
          <mxGeometry x="1654" y="260" width="70" height="30" as="geometry" />
        </mxCell>
        <mxCell id="cWtNn_g0kMUpJ86B1lAH-39" value="" style="rounded=0;whiteSpace=wrap;html=1;" vertex="1" parent="1">
          <mxGeometry x="1654" y="290" width="70" height="30" as="geometry" />
        </mxCell>
        <mxCell id="cWtNn_g0kMUpJ86B1lAH-40" style="rounded=0;orthogonalLoop=1;jettySize=auto;html=1;entryX=0.75;entryY=0;entryDx=0;entryDy=0;" edge="1" parent="1" source="cWtNn_g0kMUpJ86B1lAH-41" target="cWtNn_g0kMUpJ86B1lAH-54">
          <mxGeometry relative="1" as="geometry" />
        </mxCell>
        <mxCell id="cWtNn_g0kMUpJ86B1lAH-41" value="" style="rounded=0;whiteSpace=wrap;html=1;" vertex="1" parent="1">
          <mxGeometry x="1654" y="320" width="70" height="30" as="geometry" />
        </mxCell>
        <mxCell id="cWtNn_g0kMUpJ86B1lAH-42" value="" style="rounded=0;whiteSpace=wrap;html=1;" vertex="1" parent="1">
          <mxGeometry x="1380" y="230" width="70" height="30" as="geometry" />
        </mxCell>
        <mxCell id="cWtNn_g0kMUpJ86B1lAH-43" value="" style="rounded=0;whiteSpace=wrap;html=1;" vertex="1" parent="1">
          <mxGeometry x="1380" y="260" width="70" height="30" as="geometry" />
        </mxCell>
        <mxCell id="cWtNn_g0kMUpJ86B1lAH-44" value="" style="rounded=0;whiteSpace=wrap;html=1;" vertex="1" parent="1">
          <mxGeometry x="1380" y="290" width="70" height="30" as="geometry" />
        </mxCell>
        <mxCell id="cWtNn_g0kMUpJ86B1lAH-45" style="rounded=0;orthogonalLoop=1;jettySize=auto;html=1;" edge="1" parent="1" source="cWtNn_g0kMUpJ86B1lAH-46" target="cWtNn_g0kMUpJ86B1lAH-54">
          <mxGeometry relative="1" as="geometry" />
        </mxCell>
        <mxCell id="cWtNn_g0kMUpJ86B1lAH-46" value="" style="rounded=0;whiteSpace=wrap;html=1;" vertex="1" parent="1">
          <mxGeometry x="1380" y="320" width="70" height="30" as="geometry" />
        </mxCell>
        <mxCell id="cWtNn_g0kMUpJ86B1lAH-47" value="b1" style="text;html=1;align=center;verticalAlign=middle;resizable=0;points=[];autosize=1;strokeColor=none;fillColor=none;" vertex="1" parent="1">
          <mxGeometry x="1330" y="228" width="40" height="30" as="geometry" />
        </mxCell>
        <mxCell id="cWtNn_g0kMUpJ86B1lAH-48" value="b2" style="text;html=1;align=center;verticalAlign=middle;resizable=0;points=[];autosize=1;strokeColor=none;fillColor=none;" vertex="1" parent="1">
          <mxGeometry x="1480" y="228" width="40" height="30" as="geometry" />
        </mxCell>
        <mxCell id="cWtNn_g0kMUpJ86B1lAH-49" value="bn" style="text;html=1;align=center;verticalAlign=middle;resizable=0;points=[];autosize=1;strokeColor=none;fillColor=none;" vertex="1" parent="1">
          <mxGeometry x="1614" y="230" width="40" height="30" as="geometry" />
        </mxCell>
        <mxCell id="cWtNn_g0kMUpJ86B1lAH-50" value="..." style="text;html=1;align=center;verticalAlign=middle;resizable=0;points=[];autosize=1;strokeColor=none;fillColor=none;fontSize=20;" vertex="1" parent="1">
          <mxGeometry x="1600" y="293" width="40" height="40" as="geometry" />
        </mxCell>
        <mxCell id="cWtNn_g0kMUpJ86B1lAH-51" style="rounded=0;orthogonalLoop=1;jettySize=auto;html=1;entryX=0.5;entryY=0;entryDx=0;entryDy=0;" edge="1" parent="1" source="cWtNn_g0kMUpJ86B1lAH-54" target="cWtNn_g0kMUpJ86B1lAH-58">
          <mxGeometry relative="1" as="geometry" />
        </mxCell>
        <mxCell id="cWtNn_g0kMUpJ86B1lAH-52" style="edgeStyle=orthogonalEdgeStyle;rounded=0;orthogonalLoop=1;jettySize=auto;html=1;entryX=0.5;entryY=0;entryDx=0;entryDy=0;" edge="1" parent="1" source="cWtNn_g0kMUpJ86B1lAH-54" target="cWtNn_g0kMUpJ86B1lAH-2">
          <mxGeometry relative="1" as="geometry" />
        </mxCell>
        <mxCell id="cWtNn_g0kMUpJ86B1lAH-53" style="rounded=0;orthogonalLoop=1;jettySize=auto;html=1;entryX=0.5;entryY=0;entryDx=0;entryDy=0;" edge="1" parent="1" source="cWtNn_g0kMUpJ86B1lAH-54" target="cWtNn_g0kMUpJ86B1lAH-56">
          <mxGeometry relative="1" as="geometry" />
        </mxCell>
        <mxCell id="cWtNn_g0kMUpJ86B1lAH-54" value="Queue selector" style="rounded=1;whiteSpace=wrap;html=1;fontFamily=Helvetica;fontSize=11;fontColor=default;labelBackgroundColor=default;fillColor=#FFFFFF;fillStyle=auto;strokeColor=#3399FF;" vertex="1" parent="1">
          <mxGeometry x="1490" y="410" width="120" height="60" as="geometry" />
        </mxCell>
        <mxCell id="cWtNn_g0kMUpJ86B1lAH-55" value="" style="sketch=0;pointerEvents=1;shadow=0;dashed=0;html=1;strokeColor=none;labelPosition=center;verticalLabelPosition=bottom;verticalAlign=top;outlineConnect=0;align=center;shape=mxgraph.office.servers.physical_host;fillColor=#2072B8;" vertex="1" parent="1">
          <mxGeometry x="1536.5" y="520" width="27" height="52" as="geometry" />
        </mxCell>
        <mxCell id="cWtNn_g0kMUpJ86B1lAH-56" value="Worker thread3" style="rounded=1;whiteSpace=wrap;html=1;fontFamily=Helvetica;fontSize=11;fontColor=default;labelBackgroundColor=default;fillColor=none;fillStyle=auto;strokeColor=#3399FF;verticalAlign=bottom;" vertex="1" parent="1">
          <mxGeometry x="1646.5" y="516" width="85" height="74" as="geometry" />
        </mxCell>
        <mxCell id="cWtNn_g0kMUpJ86B1lAH-57" value="" style="sketch=0;pointerEvents=1;shadow=0;dashed=0;html=1;strokeColor=none;labelPosition=center;verticalLabelPosition=bottom;verticalAlign=top;outlineConnect=0;align=center;shape=mxgraph.office.servers.physical_host;fillColor=#2072B8;" vertex="1" parent="1">
          <mxGeometry x="1675.5" y="520" width="27" height="52" as="geometry" />
        </mxCell>
        <mxCell id="cWtNn_g0kMUpJ86B1lAH-58" value="Worker thread 1" style="rounded=1;whiteSpace=wrap;html=1;fontFamily=Helvetica;fontSize=11;fontColor=default;labelBackgroundColor=default;fillColor=none;fillStyle=auto;strokeColor=#3399FF;verticalAlign=bottom;" vertex="1" parent="1">
          <mxGeometry x="1372.5" y="516" width="85" height="74" as="geometry" />
        </mxCell>
        <mxCell id="cWtNn_g0kMUpJ86B1lAH-59" value="" style="sketch=0;pointerEvents=1;shadow=0;dashed=0;html=1;strokeColor=none;labelPosition=center;verticalLabelPosition=bottom;verticalAlign=top;outlineConnect=0;align=center;shape=mxgraph.office.servers.physical_host;fillColor=#2072B8;" vertex="1" parent="1">
          <mxGeometry x="1401.5" y="520" width="27" height="52" as="geometry" />
        </mxCell>
        <mxCell id="cWtNn_g0kMUpJ86B1lAH-60" value="..." style="text;html=1;align=center;verticalAlign=middle;resizable=0;points=[];autosize=1;strokeColor=none;fillColor=none;fontSize=20;" vertex="1" parent="1">
          <mxGeometry x="1600" y="532" width="40" height="40" as="geometry" />
        </mxCell>
        <mxCell id="cWtNn_g0kMUpJ86B1lAH-61" style="rounded=0;orthogonalLoop=1;jettySize=auto;html=1;" edge="1" parent="1" source="cWtNn_g0kMUpJ86B1lAH-64" target="cWtNn_g0kMUpJ86B1lAH-75">
          <mxGeometry relative="1" as="geometry" />
        </mxCell>
        <mxCell id="cWtNn_g0kMUpJ86B1lAH-62" style="edgeStyle=orthogonalEdgeStyle;rounded=0;orthogonalLoop=1;jettySize=auto;html=1;" edge="1" parent="1" source="cWtNn_g0kMUpJ86B1lAH-64" target="cWtNn_g0kMUpJ86B1lAH-65">
          <mxGeometry relative="1" as="geometry" />
        </mxCell>
        <mxCell id="cWtNn_g0kMUpJ86B1lAH-63" style="rounded=0;orthogonalLoop=1;jettySize=auto;html=1;entryX=0.5;entryY=0;entryDx=0;entryDy=0;" edge="1" parent="1" source="cWtNn_g0kMUpJ86B1lAH-64" target="cWtNn_g0kMUpJ86B1lAH-70">
          <mxGeometry relative="1" as="geometry" />
        </mxCell>
        <mxCell id="cWtNn_g0kMUpJ86B1lAH-64" value="Prioritizer" style="rounded=1;whiteSpace=wrap;html=1;fontFamily=Helvetica;fontSize=11;fontColor=default;labelBackgroundColor=default;fillColor=#FFFFFF;fillStyle=auto;strokeColor=#3399FF;" vertex="1" parent="1">
          <mxGeometry x="2100" y="100" width="120" height="60" as="geometry" />
        </mxCell>
        <mxCell id="cWtNn_g0kMUpJ86B1lAH-65" value="" style="rounded=0;whiteSpace=wrap;html=1;" vertex="1" parent="1">
          <mxGeometry x="2125" y="230" width="70" height="30" as="geometry" />
        </mxCell>
        <mxCell id="cWtNn_g0kMUpJ86B1lAH-66" value="" style="rounded=0;whiteSpace=wrap;html=1;" vertex="1" parent="1">
          <mxGeometry x="2125" y="260" width="70" height="30" as="geometry" />
        </mxCell>
        <mxCell id="cWtNn_g0kMUpJ86B1lAH-67" value="" style="rounded=0;whiteSpace=wrap;html=1;" vertex="1" parent="1">
          <mxGeometry x="2125" y="290" width="70" height="30" as="geometry" />
        </mxCell>
        <mxCell id="cWtNn_g0kMUpJ86B1lAH-68" style="edgeStyle=orthogonalEdgeStyle;rounded=0;orthogonalLoop=1;jettySize=auto;html=1;entryX=0.5;entryY=0;entryDx=0;entryDy=0;" edge="1" parent="1" source="cWtNn_g0kMUpJ86B1lAH-69" target="cWtNn_g0kMUpJ86B1lAH-84">
          <mxGeometry relative="1" as="geometry" />
        </mxCell>
        <mxCell id="cWtNn_g0kMUpJ86B1lAH-69" value="" style="rounded=0;whiteSpace=wrap;html=1;" vertex="1" parent="1">
          <mxGeometry x="2125" y="320" width="70" height="30" as="geometry" />
        </mxCell>
        <mxCell id="cWtNn_g0kMUpJ86B1lAH-70" value="" style="rounded=0;whiteSpace=wrap;html=1;" vertex="1" parent="1">
          <mxGeometry x="2264" y="230" width="70" height="30" as="geometry" />
        </mxCell>
        <mxCell id="cWtNn_g0kMUpJ86B1lAH-71" value="" style="rounded=0;whiteSpace=wrap;html=1;" vertex="1" parent="1">
          <mxGeometry x="2264" y="260" width="70" height="30" as="geometry" />
        </mxCell>
        <mxCell id="cWtNn_g0kMUpJ86B1lAH-72" value="" style="rounded=0;whiteSpace=wrap;html=1;" vertex="1" parent="1">
          <mxGeometry x="2264" y="290" width="70" height="30" as="geometry" />
        </mxCell>
        <mxCell id="cWtNn_g0kMUpJ86B1lAH-73" style="rounded=0;orthogonalLoop=1;jettySize=auto;html=1;entryX=0.75;entryY=0;entryDx=0;entryDy=0;" edge="1" parent="1" source="cWtNn_g0kMUpJ86B1lAH-74" target="cWtNn_g0kMUpJ86B1lAH-84">
          <mxGeometry relative="1" as="geometry" />
        </mxCell>
        <mxCell id="cWtNn_g0kMUpJ86B1lAH-74" value="" style="rounded=0;whiteSpace=wrap;html=1;" vertex="1" parent="1">
          <mxGeometry x="2264" y="320" width="70" height="30" as="geometry" />
        </mxCell>
        <mxCell id="cWtNn_g0kMUpJ86B1lAH-75" value="" style="rounded=0;whiteSpace=wrap;html=1;" vertex="1" parent="1">
          <mxGeometry x="1990" y="230" width="70" height="30" as="geometry" />
        </mxCell>
        <mxCell id="cWtNn_g0kMUpJ86B1lAH-76" value="" style="rounded=0;whiteSpace=wrap;html=1;" vertex="1" parent="1">
          <mxGeometry x="1990" y="260" width="70" height="30" as="geometry" />
        </mxCell>
        <mxCell id="cWtNn_g0kMUpJ86B1lAH-77" value="" style="rounded=0;whiteSpace=wrap;html=1;" vertex="1" parent="1">
          <mxGeometry x="1990" y="290" width="70" height="30" as="geometry" />
        </mxCell>
        <mxCell id="cWtNn_g0kMUpJ86B1lAH-78" style="rounded=0;orthogonalLoop=1;jettySize=auto;html=1;" edge="1" parent="1" source="cWtNn_g0kMUpJ86B1lAH-79" target="cWtNn_g0kMUpJ86B1lAH-84">
          <mxGeometry relative="1" as="geometry" />
        </mxCell>
        <mxCell id="cWtNn_g0kMUpJ86B1lAH-79" value="" style="rounded=0;whiteSpace=wrap;html=1;" vertex="1" parent="1">
          <mxGeometry x="1990" y="320" width="70" height="30" as="geometry" />
        </mxCell>
        <mxCell id="cWtNn_g0kMUpJ86B1lAH-80" value="f1" style="text;html=1;align=center;verticalAlign=middle;resizable=0;points=[];autosize=1;strokeColor=none;fillColor=none;" vertex="1" parent="1">
          <mxGeometry x="1945" y="228" width="30" height="30" as="geometry" />
        </mxCell>
        <mxCell id="cWtNn_g0kMUpJ86B1lAH-81" value="f2" style="text;html=1;align=center;verticalAlign=middle;resizable=0;points=[];autosize=1;strokeColor=none;fillColor=none;" vertex="1" parent="1">
          <mxGeometry x="2095" y="228" width="30" height="30" as="geometry" />
        </mxCell>
        <mxCell id="cWtNn_g0kMUpJ86B1lAH-82" value="fn" style="text;html=1;align=center;verticalAlign=middle;resizable=0;points=[];autosize=1;strokeColor=none;fillColor=none;" vertex="1" parent="1">
          <mxGeometry x="2229" y="230" width="30" height="30" as="geometry" />
        </mxCell>
        <mxCell id="cWtNn_g0kMUpJ86B1lAH-83" value="..." style="text;html=1;align=center;verticalAlign=middle;resizable=0;points=[];autosize=1;strokeColor=none;fillColor=none;fontSize=20;" vertex="1" parent="1">
          <mxGeometry x="2210" y="293" width="40" height="40" as="geometry" />
        </mxCell>
        <mxCell id="cWtNn_g0kMUpJ86B1lAH-84" value="Queue selector" style="rounded=1;whiteSpace=wrap;html=1;fontFamily=Helvetica;fontSize=11;fontColor=default;labelBackgroundColor=default;fillColor=#FFFFFF;fillStyle=auto;strokeColor=#3399FF;" vertex="1" parent="1">
          <mxGeometry x="2100" y="410" width="120" height="60" as="geometry" />
        </mxCell>
        <mxCell id="cWtNn_g0kMUpJ86B1lAH-85" value="Input URLs" style="endArrow=classic;html=1;rounded=0;entryX=0.5;entryY=0;entryDx=0;entryDy=0;spacingLeft=70;" edge="1" parent="1" target="cWtNn_g0kMUpJ86B1lAH-64">
          <mxGeometry width="50" height="50" relative="1" as="geometry">
            <mxPoint x="2160" y="40" as="sourcePoint" />
            <mxPoint x="1920" y="270" as="targetPoint" />
          </mxGeometry>
        </mxCell>
        <mxCell id="cWtNn_g0kMUpJ86B1lAH-86" value="Output URLs" style="endArrow=classic;html=1;rounded=0;entryX=0.5;entryY=0;entryDx=0;entryDy=0;spacingLeft=70;" edge="1" parent="1" source="cWtNn_g0kMUpJ86B1lAH-84">
          <mxGeometry width="50" height="50" relative="1" as="geometry">
            <mxPoint x="2159.5" y="472" as="sourcePoint" />
            <mxPoint x="2159.5" y="532" as="targetPoint" />
          </mxGeometry>
        </mxCell>
        <mxCell id="cWtNn_g0kMUpJ86B1lAH-87" style="rounded=0;orthogonalLoop=1;jettySize=auto;html=1;" edge="1" parent="1" source="cWtNn_g0kMUpJ86B1lAH-90" target="cWtNn_g0kMUpJ86B1lAH-101">
          <mxGeometry relative="1" as="geometry" />
        </mxCell>
        <mxCell id="cWtNn_g0kMUpJ86B1lAH-88" style="edgeStyle=orthogonalEdgeStyle;rounded=0;orthogonalLoop=1;jettySize=auto;html=1;" edge="1" parent="1" source="cWtNn_g0kMUpJ86B1lAH-90" target="cWtNn_g0kMUpJ86B1lAH-91">
          <mxGeometry relative="1" as="geometry" />
        </mxCell>
        <mxCell id="cWtNn_g0kMUpJ86B1lAH-89" style="rounded=0;orthogonalLoop=1;jettySize=auto;html=1;entryX=0.5;entryY=0;entryDx=0;entryDy=0;" edge="1" parent="1" source="cWtNn_g0kMUpJ86B1lAH-90" target="cWtNn_g0kMUpJ86B1lAH-96">
          <mxGeometry relative="1" as="geometry" />
        </mxCell>
        <mxCell id="cWtNn_g0kMUpJ86B1lAH-90" value="Prioritizer" style="rounded=1;whiteSpace=wrap;html=1;fontFamily=Helvetica;fontSize=11;fontColor=default;labelBackgroundColor=default;fillColor=#FFFFFF;fillStyle=auto;strokeColor=#3399FF;" vertex="1" parent="1">
          <mxGeometry x="2705" y="100" width="120" height="60" as="geometry" />
        </mxCell>
        <mxCell id="cWtNn_g0kMUpJ86B1lAH-91" value="" style="rounded=0;whiteSpace=wrap;html=1;" vertex="1" parent="1">
          <mxGeometry x="2730" y="230" width="70" height="30" as="geometry" />
        </mxCell>
        <mxCell id="cWtNn_g0kMUpJ86B1lAH-92" value="" style="rounded=0;whiteSpace=wrap;html=1;" vertex="1" parent="1">
          <mxGeometry x="2730" y="260" width="70" height="30" as="geometry" />
        </mxCell>
        <mxCell id="cWtNn_g0kMUpJ86B1lAH-93" value="" style="rounded=0;whiteSpace=wrap;html=1;" vertex="1" parent="1">
          <mxGeometry x="2730" y="290" width="70" height="30" as="geometry" />
        </mxCell>
        <mxCell id="cWtNn_g0kMUpJ86B1lAH-94" style="edgeStyle=orthogonalEdgeStyle;rounded=0;orthogonalLoop=1;jettySize=auto;html=1;entryX=0.5;entryY=0;entryDx=0;entryDy=0;" edge="1" parent="1" source="cWtNn_g0kMUpJ86B1lAH-95" target="cWtNn_g0kMUpJ86B1lAH-110">
          <mxGeometry relative="1" as="geometry" />
        </mxCell>
        <mxCell id="cWtNn_g0kMUpJ86B1lAH-95" value="" style="rounded=0;whiteSpace=wrap;html=1;" vertex="1" parent="1">
          <mxGeometry x="2730" y="320" width="70" height="30" as="geometry" />
        </mxCell>
        <mxCell id="cWtNn_g0kMUpJ86B1lAH-96" value="" style="rounded=0;whiteSpace=wrap;html=1;" vertex="1" parent="1">
          <mxGeometry x="2869" y="230" width="70" height="30" as="geometry" />
        </mxCell>
        <mxCell id="cWtNn_g0kMUpJ86B1lAH-97" value="" style="rounded=0;whiteSpace=wrap;html=1;" vertex="1" parent="1">
          <mxGeometry x="2869" y="260" width="70" height="30" as="geometry" />
        </mxCell>
        <mxCell id="cWtNn_g0kMUpJ86B1lAH-98" value="" style="rounded=0;whiteSpace=wrap;html=1;" vertex="1" parent="1">
          <mxGeometry x="2869" y="290" width="70" height="30" as="geometry" />
        </mxCell>
        <mxCell id="cWtNn_g0kMUpJ86B1lAH-99" style="rounded=0;orthogonalLoop=1;jettySize=auto;html=1;entryX=0.75;entryY=0;entryDx=0;entryDy=0;" edge="1" parent="1" source="cWtNn_g0kMUpJ86B1lAH-100" target="cWtNn_g0kMUpJ86B1lAH-110">
          <mxGeometry relative="1" as="geometry" />
        </mxCell>
        <mxCell id="cWtNn_g0kMUpJ86B1lAH-100" value="" style="rounded=0;whiteSpace=wrap;html=1;" vertex="1" parent="1">
          <mxGeometry x="2869" y="320" width="70" height="30" as="geometry" />
        </mxCell>
        <mxCell id="cWtNn_g0kMUpJ86B1lAH-101" value="" style="rounded=0;whiteSpace=wrap;html=1;" vertex="1" parent="1">
          <mxGeometry x="2595" y="230" width="70" height="30" as="geometry" />
        </mxCell>
        <mxCell id="cWtNn_g0kMUpJ86B1lAH-102" value="" style="rounded=0;whiteSpace=wrap;html=1;" vertex="1" parent="1">
          <mxGeometry x="2595" y="260" width="70" height="30" as="geometry" />
        </mxCell>
        <mxCell id="cWtNn_g0kMUpJ86B1lAH-103" value="" style="rounded=0;whiteSpace=wrap;html=1;" vertex="1" parent="1">
          <mxGeometry x="2595" y="290" width="70" height="30" as="geometry" />
        </mxCell>
        <mxCell id="cWtNn_g0kMUpJ86B1lAH-104" style="rounded=0;orthogonalLoop=1;jettySize=auto;html=1;" edge="1" parent="1" source="cWtNn_g0kMUpJ86B1lAH-105" target="cWtNn_g0kMUpJ86B1lAH-110">
          <mxGeometry relative="1" as="geometry" />
        </mxCell>
        <mxCell id="cWtNn_g0kMUpJ86B1lAH-105" value="" style="rounded=0;whiteSpace=wrap;html=1;" vertex="1" parent="1">
          <mxGeometry x="2595" y="320" width="70" height="30" as="geometry" />
        </mxCell>
        <mxCell id="cWtNn_g0kMUpJ86B1lAH-106" value="f1" style="text;html=1;align=center;verticalAlign=middle;resizable=0;points=[];autosize=1;strokeColor=none;fillColor=none;" vertex="1" parent="1">
          <mxGeometry x="2550" y="228" width="30" height="30" as="geometry" />
        </mxCell>
        <mxCell id="cWtNn_g0kMUpJ86B1lAH-107" value="f2" style="text;html=1;align=center;verticalAlign=middle;resizable=0;points=[];autosize=1;strokeColor=none;fillColor=none;" vertex="1" parent="1">
          <mxGeometry x="2700" y="228" width="30" height="30" as="geometry" />
        </mxCell>
        <mxCell id="cWtNn_g0kMUpJ86B1lAH-108" value="fn" style="text;html=1;align=center;verticalAlign=middle;resizable=0;points=[];autosize=1;strokeColor=none;fillColor=none;" vertex="1" parent="1">
          <mxGeometry x="2834" y="230" width="30" height="30" as="geometry" />
        </mxCell>
        <mxCell id="cWtNn_g0kMUpJ86B1lAH-109" value="..." style="text;html=1;align=center;verticalAlign=middle;resizable=0;points=[];autosize=1;strokeColor=none;fillColor=none;fontSize=20;" vertex="1" parent="1">
          <mxGeometry x="2815" y="293" width="40" height="40" as="geometry" />
        </mxCell>
        <mxCell id="cWtNn_g0kMUpJ86B1lAH-110" value="Front queue selector" style="rounded=1;whiteSpace=wrap;html=1;fontFamily=Helvetica;fontSize=11;fontColor=default;labelBackgroundColor=default;fillColor=#FFFFFF;fillStyle=auto;strokeColor=#3399FF;" vertex="1" parent="1">
          <mxGeometry x="2705" y="410" width="120" height="60" as="geometry" />
        </mxCell>
        <mxCell id="cWtNn_g0kMUpJ86B1lAH-111" value="Input URLs" style="endArrow=classic;html=1;rounded=0;entryX=0.5;entryY=0;entryDx=0;entryDy=0;spacingLeft=70;" edge="1" parent="1" target="cWtNn_g0kMUpJ86B1lAH-90">
          <mxGeometry width="50" height="50" relative="1" as="geometry">
            <mxPoint x="2765" y="40" as="sourcePoint" />
            <mxPoint x="2525" y="270" as="targetPoint" />
          </mxGeometry>
        </mxCell>
        <mxCell id="cWtNn_g0kMUpJ86B1lAH-112" value="Output URLs" style="endArrow=classic;html=1;rounded=0;entryX=0.5;entryY=0;entryDx=0;entryDy=0;spacingLeft=70;" edge="1" parent="1" source="cWtNn_g0kMUpJ86B1lAH-110" target="cWtNn_g0kMUpJ86B1lAH-119">
          <mxGeometry width="50" height="50" relative="1" as="geometry">
            <mxPoint x="2760.5" y="472" as="sourcePoint" />
            <mxPoint x="2760.5" y="532" as="targetPoint" />
          </mxGeometry>
        </mxCell>
        <mxCell id="cWtNn_g0kMUpJ86B1lAH-113" value="Worker thread 2" style="rounded=1;whiteSpace=wrap;html=1;fontFamily=Helvetica;fontSize=11;fontColor=default;labelBackgroundColor=default;fillColor=none;fillStyle=auto;strokeColor=#3399FF;verticalAlign=bottom;" vertex="1" parent="1">
          <mxGeometry x="2720" y="980" width="90" height="80" as="geometry" />
        </mxCell>
        <mxCell id="cWtNn_g0kMUpJ86B1lAH-114" value="Mapping Table" style="rounded=1;whiteSpace=wrap;html=1;fillColor=none;verticalAlign=bottom;" vertex="1" parent="1">
          <mxGeometry x="2950" y="550" width="100" height="100" as="geometry" />
        </mxCell>
        <mxCell id="cWtNn_g0kMUpJ86B1lAH-115" style="rounded=0;orthogonalLoop=1;jettySize=auto;html=1;" edge="1" parent="1" source="cWtNn_g0kMUpJ86B1lAH-119" target="cWtNn_g0kMUpJ86B1lAH-131">
          <mxGeometry relative="1" as="geometry" />
        </mxCell>
        <mxCell id="cWtNn_g0kMUpJ86B1lAH-116" style="edgeStyle=orthogonalEdgeStyle;rounded=0;orthogonalLoop=1;jettySize=auto;html=1;" edge="1" parent="1" source="cWtNn_g0kMUpJ86B1lAH-119" target="cWtNn_g0kMUpJ86B1lAH-121">
          <mxGeometry relative="1" as="geometry" />
        </mxCell>
        <mxCell id="cWtNn_g0kMUpJ86B1lAH-117" style="rounded=0;orthogonalLoop=1;jettySize=auto;html=1;entryX=0.5;entryY=0;entryDx=0;entryDy=0;" edge="1" parent="1" source="cWtNn_g0kMUpJ86B1lAH-119" target="cWtNn_g0kMUpJ86B1lAH-126">
          <mxGeometry relative="1" as="geometry" />
        </mxCell>
        <mxCell id="cWtNn_g0kMUpJ86B1lAH-118" style="edgeStyle=orthogonalEdgeStyle;rounded=0;orthogonalLoop=1;jettySize=auto;html=1;entryX=0;entryY=0.5;entryDx=0;entryDy=0;" edge="1" parent="1" source="cWtNn_g0kMUpJ86B1lAH-119" target="cWtNn_g0kMUpJ86B1lAH-114">
          <mxGeometry relative="1" as="geometry" />
        </mxCell>
        <mxCell id="cWtNn_g0kMUpJ86B1lAH-119" value="Back queue router" style="rounded=1;whiteSpace=wrap;html=1;fontFamily=Helvetica;fontSize=11;fontColor=default;labelBackgroundColor=default;fillColor=#FFFFFF;fillStyle=auto;strokeColor=#3399FF;" vertex="1" parent="1">
          <mxGeometry x="2705" y="570" width="120" height="60" as="geometry" />
        </mxCell>
        <mxCell id="cWtNn_g0kMUpJ86B1lAH-120" value="" style="sketch=0;outlineConnect=0;fontColor=#232F3E;gradientColor=none;fillColor=#3399FF;strokeColor=#007FFF;dashed=0;verticalLabelPosition=bottom;verticalAlign=top;align=center;html=1;fontSize=12;fontStyle=0;aspect=fixed;pointerEvents=1;shape=mxgraph.aws4.generic_database;" vertex="1" parent="1">
          <mxGeometry x="2970" y="550" width="60" height="80" as="geometry" />
        </mxCell>
        <mxCell id="cWtNn_g0kMUpJ86B1lAH-121" value="" style="rounded=0;whiteSpace=wrap;html=1;" vertex="1" parent="1">
          <mxGeometry x="2730" y="700" width="70" height="30" as="geometry" />
        </mxCell>
        <mxCell id="cWtNn_g0kMUpJ86B1lAH-122" value="" style="rounded=0;whiteSpace=wrap;html=1;" vertex="1" parent="1">
          <mxGeometry x="2730" y="730" width="70" height="30" as="geometry" />
        </mxCell>
        <mxCell id="cWtNn_g0kMUpJ86B1lAH-123" value="" style="rounded=0;whiteSpace=wrap;html=1;" vertex="1" parent="1">
          <mxGeometry x="2730" y="760" width="70" height="30" as="geometry" />
        </mxCell>
        <mxCell id="cWtNn_g0kMUpJ86B1lAH-124" style="edgeStyle=orthogonalEdgeStyle;rounded=0;orthogonalLoop=1;jettySize=auto;html=1;entryX=0.5;entryY=0;entryDx=0;entryDy=0;" edge="1" parent="1" source="cWtNn_g0kMUpJ86B1lAH-125" target="cWtNn_g0kMUpJ86B1lAH-143">
          <mxGeometry relative="1" as="geometry" />
        </mxCell>
        <mxCell id="cWtNn_g0kMUpJ86B1lAH-125" value="" style="rounded=0;whiteSpace=wrap;html=1;" vertex="1" parent="1">
          <mxGeometry x="2730" y="790" width="70" height="30" as="geometry" />
        </mxCell>
        <mxCell id="cWtNn_g0kMUpJ86B1lAH-126" value="" style="rounded=0;whiteSpace=wrap;html=1;" vertex="1" parent="1">
          <mxGeometry x="2870" y="700" width="70" height="30" as="geometry" />
        </mxCell>
        <mxCell id="cWtNn_g0kMUpJ86B1lAH-127" value="" style="rounded=0;whiteSpace=wrap;html=1;" vertex="1" parent="1">
          <mxGeometry x="2870" y="730" width="70" height="30" as="geometry" />
        </mxCell>
        <mxCell id="cWtNn_g0kMUpJ86B1lAH-128" value="" style="rounded=0;whiteSpace=wrap;html=1;" vertex="1" parent="1">
          <mxGeometry x="2870" y="760" width="70" height="30" as="geometry" />
        </mxCell>
        <mxCell id="cWtNn_g0kMUpJ86B1lAH-129" style="rounded=0;orthogonalLoop=1;jettySize=auto;html=1;entryX=0.75;entryY=0;entryDx=0;entryDy=0;" edge="1" parent="1" source="cWtNn_g0kMUpJ86B1lAH-130" target="cWtNn_g0kMUpJ86B1lAH-143">
          <mxGeometry relative="1" as="geometry" />
        </mxCell>
        <mxCell id="cWtNn_g0kMUpJ86B1lAH-130" value="" style="rounded=0;whiteSpace=wrap;html=1;" vertex="1" parent="1">
          <mxGeometry x="2870" y="790" width="70" height="30" as="geometry" />
        </mxCell>
        <mxCell id="cWtNn_g0kMUpJ86B1lAH-131" value="" style="rounded=0;whiteSpace=wrap;html=1;" vertex="1" parent="1">
          <mxGeometry x="2600" y="700" width="70" height="30" as="geometry" />
        </mxCell>
        <mxCell id="cWtNn_g0kMUpJ86B1lAH-132" value="" style="rounded=0;whiteSpace=wrap;html=1;" vertex="1" parent="1">
          <mxGeometry x="2600" y="730" width="70" height="30" as="geometry" />
        </mxCell>
        <mxCell id="cWtNn_g0kMUpJ86B1lAH-133" value="" style="rounded=0;whiteSpace=wrap;html=1;" vertex="1" parent="1">
          <mxGeometry x="2600" y="760" width="70" height="30" as="geometry" />
        </mxCell>
        <mxCell id="cWtNn_g0kMUpJ86B1lAH-134" style="rounded=0;orthogonalLoop=1;jettySize=auto;html=1;" edge="1" parent="1" source="cWtNn_g0kMUpJ86B1lAH-135" target="cWtNn_g0kMUpJ86B1lAH-143">
          <mxGeometry relative="1" as="geometry" />
        </mxCell>
        <mxCell id="cWtNn_g0kMUpJ86B1lAH-135" value="" style="rounded=0;whiteSpace=wrap;html=1;" vertex="1" parent="1">
          <mxGeometry x="2600" y="790" width="70" height="30" as="geometry" />
        </mxCell>
        <mxCell id="cWtNn_g0kMUpJ86B1lAH-136" value="b1" style="text;html=1;align=center;verticalAlign=middle;resizable=0;points=[];autosize=1;strokeColor=none;fillColor=none;" vertex="1" parent="1">
          <mxGeometry x="2550" y="700" width="40" height="30" as="geometry" />
        </mxCell>
        <mxCell id="cWtNn_g0kMUpJ86B1lAH-137" value="b2" style="text;html=1;align=center;verticalAlign=middle;resizable=0;points=[];autosize=1;strokeColor=none;fillColor=none;" vertex="1" parent="1">
          <mxGeometry x="2700" y="700" width="40" height="30" as="geometry" />
        </mxCell>
        <mxCell id="cWtNn_g0kMUpJ86B1lAH-138" value="bn" style="text;html=1;align=center;verticalAlign=middle;resizable=0;points=[];autosize=1;strokeColor=none;fillColor=none;" vertex="1" parent="1">
          <mxGeometry x="2830" y="700" width="40" height="30" as="geometry" />
        </mxCell>
        <mxCell id="cWtNn_g0kMUpJ86B1lAH-139" value="..." style="text;html=1;align=center;verticalAlign=middle;resizable=0;points=[];autosize=1;strokeColor=none;fillColor=none;fontSize=20;" vertex="1" parent="1">
          <mxGeometry x="2820" y="760" width="40" height="40" as="geometry" />
        </mxCell>
        <mxCell id="cWtNn_g0kMUpJ86B1lAH-140" style="rounded=0;orthogonalLoop=1;jettySize=auto;html=1;entryX=0.5;entryY=0;entryDx=0;entryDy=0;" edge="1" parent="1" source="cWtNn_g0kMUpJ86B1lAH-143" target="cWtNn_g0kMUpJ86B1lAH-147">
          <mxGeometry relative="1" as="geometry" />
        </mxCell>
        <mxCell id="cWtNn_g0kMUpJ86B1lAH-141" style="edgeStyle=orthogonalEdgeStyle;rounded=0;orthogonalLoop=1;jettySize=auto;html=1;entryX=0.5;entryY=0;entryDx=0;entryDy=0;" edge="1" parent="1" source="cWtNn_g0kMUpJ86B1lAH-143" target="cWtNn_g0kMUpJ86B1lAH-113">
          <mxGeometry relative="1" as="geometry" />
        </mxCell>
        <mxCell id="cWtNn_g0kMUpJ86B1lAH-142" style="rounded=0;orthogonalLoop=1;jettySize=auto;html=1;entryX=0.5;entryY=0;entryDx=0;entryDy=0;" edge="1" parent="1" source="cWtNn_g0kMUpJ86B1lAH-143" target="cWtNn_g0kMUpJ86B1lAH-145">
          <mxGeometry relative="1" as="geometry" />
        </mxCell>
        <mxCell id="cWtNn_g0kMUpJ86B1lAH-143" value="Back queue selector" style="rounded=1;whiteSpace=wrap;html=1;fontFamily=Helvetica;fontSize=11;fontColor=default;labelBackgroundColor=default;fillColor=#FFFFFF;fillStyle=auto;strokeColor=#3399FF;" vertex="1" parent="1">
          <mxGeometry x="2705" y="880" width="120" height="60" as="geometry" />
        </mxCell>
        <mxCell id="cWtNn_g0kMUpJ86B1lAH-144" value="" style="sketch=0;pointerEvents=1;shadow=0;dashed=0;html=1;strokeColor=none;labelPosition=center;verticalLabelPosition=bottom;verticalAlign=top;outlineConnect=0;align=center;shape=mxgraph.office.servers.physical_host;fillColor=#2072B8;" vertex="1" parent="1">
          <mxGeometry x="2750" y="990" width="30" height="50" as="geometry" />
        </mxCell>
        <mxCell id="cWtNn_g0kMUpJ86B1lAH-145" value="Worker thread3" style="rounded=1;whiteSpace=wrap;html=1;fontFamily=Helvetica;fontSize=11;fontColor=default;labelBackgroundColor=default;fillColor=none;fillStyle=auto;strokeColor=#3399FF;verticalAlign=bottom;" vertex="1" parent="1">
          <mxGeometry x="2860" y="980" width="90" height="80" as="geometry" />
        </mxCell>
        <mxCell id="cWtNn_g0kMUpJ86B1lAH-146" value="" style="sketch=0;pointerEvents=1;shadow=0;dashed=0;html=1;strokeColor=none;labelPosition=center;verticalLabelPosition=bottom;verticalAlign=top;outlineConnect=0;align=center;shape=mxgraph.office.servers.physical_host;fillColor=#2072B8;" vertex="1" parent="1">
          <mxGeometry x="2890" y="990" width="30" height="50" as="geometry" />
        </mxCell>
        <mxCell id="cWtNn_g0kMUpJ86B1lAH-147" value="Worker thread 1" style="rounded=1;whiteSpace=wrap;html=1;fontFamily=Helvetica;fontSize=11;fontColor=default;labelBackgroundColor=default;fillColor=none;fillStyle=auto;strokeColor=#3399FF;verticalAlign=bottom;" vertex="1" parent="1">
          <mxGeometry x="2590" y="980" width="90" height="80" as="geometry" />
        </mxCell>
        <mxCell id="cWtNn_g0kMUpJ86B1lAH-148" value="" style="sketch=0;pointerEvents=1;shadow=0;dashed=0;html=1;strokeColor=none;labelPosition=center;verticalLabelPosition=bottom;verticalAlign=top;outlineConnect=0;align=center;shape=mxgraph.office.servers.physical_host;fillColor=#2072B8;" vertex="1" parent="1">
          <mxGeometry x="2620" y="990" width="30" height="50" as="geometry" />
        </mxCell>
        <mxCell id="cWtNn_g0kMUpJ86B1lAH-149" value="..." style="text;html=1;align=center;verticalAlign=middle;resizable=0;points=[];autosize=1;strokeColor=none;fillColor=none;fontSize=20;" vertex="1" parent="1">
          <mxGeometry x="2820" y="1000" width="40" height="40" as="geometry" />
        </mxCell>
        <mxCell id="cWtNn_g0kMUpJ86B1lAH-150" value="" style="sketch=0;pointerEvents=1;shadow=0;dashed=0;html=1;strokeColor=none;fillColor=#505050;labelPosition=center;verticalLabelPosition=bottom;verticalAlign=top;outlineConnect=0;align=center;shape=mxgraph.office.servers.server_generic;" vertex="1" parent="1">
          <mxGeometry x="3590" y="580" width="40" height="90" as="geometry" />
        </mxCell>
        <mxCell id="cWtNn_g0kMUpJ86B1lAH-151" value="" style="sketch=0;pointerEvents=1;shadow=0;dashed=0;html=1;strokeColor=none;fillColor=#505050;labelPosition=center;verticalLabelPosition=bottom;verticalAlign=top;outlineConnect=0;align=center;shape=mxgraph.office.servers.server_generic;" vertex="1" parent="1">
          <mxGeometry x="3590" y="420" width="40" height="90" as="geometry" />
        </mxCell>
        <mxCell id="cWtNn_g0kMUpJ86B1lAH-152" value="" style="sketch=0;pointerEvents=1;shadow=0;dashed=0;html=1;strokeColor=none;fillColor=#505050;labelPosition=center;verticalLabelPosition=bottom;verticalAlign=top;outlineConnect=0;align=center;shape=mxgraph.office.servers.server_generic;" vertex="1" parent="1">
          <mxGeometry x="3590" y="740" width="40" height="90" as="geometry" />
        </mxCell>
        <mxCell id="cWtNn_g0kMUpJ86B1lAH-153" value="distribute URL" style="rounded=0;orthogonalLoop=1;jettySize=auto;html=1;exitX=1;exitY=0.5;exitDx=0;exitDy=0;verticalAlign=bottom;horizontal=1;fontSize=12;" edge="1" parent="1" source="cWtNn_g0kMUpJ86B1lAH-157" target="cWtNn_g0kMUpJ86B1lAH-151">
          <mxGeometry relative="1" as="geometry" />
        </mxCell>
        <mxCell id="cWtNn_g0kMUpJ86B1lAH-154" value="&lt;span style=&quot;caret-color: rgb(0, 0, 0); color: rgb(0, 0, 0); font-family: Helvetica; font-size: 12px; font-style: normal; font-variant-caps: normal; font-weight: 400; letter-spacing: normal; orphans: auto; text-align: center; text-indent: 0px; text-transform: none; white-space: nowrap; widows: auto; word-spacing: 0px; -webkit-text-stroke-width: 0px; background-color: rgb(255, 255, 255); text-decoration: none; display: inline !important; float: none;&quot;&gt;distribute URL&lt;/span&gt;" style="edgeStyle=orthogonalEdgeStyle;rounded=0;orthogonalLoop=1;jettySize=auto;html=1;" edge="1" parent="1" source="cWtNn_g0kMUpJ86B1lAH-157" target="cWtNn_g0kMUpJ86B1lAH-150">
          <mxGeometry relative="1" as="geometry" />
        </mxCell>
        <mxCell id="cWtNn_g0kMUpJ86B1lAH-155" style="rounded=0;orthogonalLoop=1;jettySize=auto;html=1;exitX=1;exitY=0.5;exitDx=0;exitDy=0;" edge="1" parent="1" source="cWtNn_g0kMUpJ86B1lAH-157" target="cWtNn_g0kMUpJ86B1lAH-152">
          <mxGeometry relative="1" as="geometry" />
        </mxCell>
        <mxCell id="cWtNn_g0kMUpJ86B1lAH-156" value="&lt;span style=&quot;font-size: 12px;&quot;&gt;distribute URL&lt;/span&gt;" style="edgeLabel;html=1;align=right;verticalAlign=bottom;resizable=0;points=[];horizontal=1;labelPosition=left;verticalLabelPosition=top;" connectable="0" vertex="1" parent="cWtNn_g0kMUpJ86B1lAH-155">
          <mxGeometry x="0.257" relative="1" as="geometry">
            <mxPoint as="offset" />
          </mxGeometry>
        </mxCell>
        <mxCell id="cWtNn_g0kMUpJ86B1lAH-157" value="URL Frontier" style="rounded=1;whiteSpace=wrap;html=1;fontFamily=Helvetica;fontSize=11;fontColor=default;labelBackgroundColor=default;" vertex="1" parent="1">
          <mxGeometry x="3220" y="595" width="120" height="60" as="geometry" />
        </mxCell>
        <mxCell id="cWtNn_g0kMUpJ86B1lAH-158" value="HTML Downloaders" style="text;html=1;align=center;verticalAlign=middle;resizable=0;points=[];autosize=1;strokeColor=none;fillColor=none;fontSize=20;" vertex="1" parent="1">
          <mxGeometry x="3510" y="875" width="200" height="40" as="geometry" />
        </mxCell>
        <mxCell id="cWtNn_g0kMUpJ86B1lAH-159" value="" style="edgeStyle=orthogonalEdgeStyle;shape=connector;rounded=0;orthogonalLoop=1;jettySize=auto;html=1;strokeColor=#3399FF;align=center;verticalAlign=middle;fontFamily=Helvetica;fontSize=11;fontColor=default;labelBackgroundColor=default;endArrow=classic;" edge="1" parent="1" source="cWtNn_g0kMUpJ86B1lAH-160" target="cWtNn_g0kMUpJ86B1lAH-162">
          <mxGeometry relative="1" as="geometry" />
        </mxCell>
        <mxCell id="cWtNn_g0kMUpJ86B1lAH-160" value="seed URLs" style="rounded=1;whiteSpace=wrap;html=1;fontFamily=Helvetica;fontSize=11;fontColor=default;labelBackgroundColor=default;" vertex="1" parent="1">
          <mxGeometry x="3880" y="180" width="120" height="60" as="geometry" />
        </mxCell>
        <mxCell id="cWtNn_g0kMUpJ86B1lAH-161" value="" style="edgeStyle=orthogonalEdgeStyle;shape=connector;rounded=0;orthogonalLoop=1;jettySize=auto;html=1;strokeColor=#3399FF;align=center;verticalAlign=middle;fontFamily=Helvetica;fontSize=11;fontColor=default;labelBackgroundColor=default;endArrow=classic;" edge="1" parent="1" source="cWtNn_g0kMUpJ86B1lAH-162" target="cWtNn_g0kMUpJ86B1lAH-165">
          <mxGeometry relative="1" as="geometry" />
        </mxCell>
        <mxCell id="cWtNn_g0kMUpJ86B1lAH-162" value="URL Frontier" style="rounded=1;whiteSpace=wrap;html=1;fontFamily=Helvetica;fontSize=11;fontColor=default;labelBackgroundColor=default;" vertex="1" parent="1">
          <mxGeometry x="4100" y="180" width="120" height="60" as="geometry" />
        </mxCell>
        <mxCell id="cWtNn_g0kMUpJ86B1lAH-163" value="" style="edgeStyle=orthogonalEdgeStyle;shape=connector;rounded=0;orthogonalLoop=1;jettySize=auto;html=1;strokeColor=#3399FF;align=center;verticalAlign=middle;fontFamily=Helvetica;fontSize=11;fontColor=default;labelBackgroundColor=default;endArrow=classic;" edge="1" parent="1" source="cWtNn_g0kMUpJ86B1lAH-165" target="cWtNn_g0kMUpJ86B1lAH-166">
          <mxGeometry relative="1" as="geometry" />
        </mxCell>
        <mxCell id="cWtNn_g0kMUpJ86B1lAH-164" value="" style="edgeStyle=orthogonalEdgeStyle;shape=connector;rounded=0;orthogonalLoop=1;jettySize=auto;html=1;strokeColor=#3399FF;align=center;verticalAlign=middle;fontFamily=Helvetica;fontSize=11;fontColor=default;labelBackgroundColor=default;endArrow=classic;" edge="1" parent="1" source="cWtNn_g0kMUpJ86B1lAH-165" target="cWtNn_g0kMUpJ86B1lAH-168">
          <mxGeometry relative="1" as="geometry" />
        </mxCell>
        <mxCell id="cWtNn_g0kMUpJ86B1lAH-165" value="HTML Downloader" style="rounded=1;whiteSpace=wrap;html=1;fontFamily=Helvetica;fontSize=11;fontColor=default;labelBackgroundColor=default;" vertex="1" parent="1">
          <mxGeometry x="4320" y="180" width="120" height="60" as="geometry" />
        </mxCell>
        <mxCell id="cWtNn_g0kMUpJ86B1lAH-166" value="DNS Resolver" style="rounded=1;whiteSpace=wrap;html=1;fontFamily=Helvetica;fontSize=11;fontColor=default;labelBackgroundColor=default;" vertex="1" parent="1">
          <mxGeometry x="4320" y="70" width="120" height="60" as="geometry" />
        </mxCell>
        <mxCell id="cWtNn_g0kMUpJ86B1lAH-167" value="" style="edgeStyle=orthogonalEdgeStyle;shape=connector;rounded=0;orthogonalLoop=1;jettySize=auto;html=1;strokeColor=#3399FF;align=center;verticalAlign=middle;fontFamily=Helvetica;fontSize=11;fontColor=default;labelBackgroundColor=default;endArrow=classic;" edge="1" parent="1" source="cWtNn_g0kMUpJ86B1lAH-168" target="cWtNn_g0kMUpJ86B1lAH-173">
          <mxGeometry relative="1" as="geometry" />
        </mxCell>
        <mxCell id="cWtNn_g0kMUpJ86B1lAH-168" value="Content Parser" style="rounded=1;whiteSpace=wrap;html=1;fontFamily=Helvetica;fontSize=11;fontColor=default;labelBackgroundColor=default;" vertex="1" parent="1">
          <mxGeometry x="4510" y="180" width="120" height="60" as="geometry" />
        </mxCell>
        <mxCell id="cWtNn_g0kMUpJ86B1lAH-169" value="" style="edgeStyle=orthogonalEdgeStyle;shape=connector;rounded=0;orthogonalLoop=1;jettySize=auto;html=1;strokeColor=#3399FF;align=center;verticalAlign=middle;fontFamily=Helvetica;fontSize=11;fontColor=default;labelBackgroundColor=default;endArrow=classic;startArrow=classic;startFill=1;" edge="1" parent="1" source="cWtNn_g0kMUpJ86B1lAH-173" target="cWtNn_g0kMUpJ86B1lAH-174">
          <mxGeometry relative="1" as="geometry" />
        </mxCell>
        <mxCell id="cWtNn_g0kMUpJ86B1lAH-170" value="" style="edgeStyle=orthogonalEdgeStyle;shape=connector;rounded=0;orthogonalLoop=1;jettySize=auto;html=1;strokeColor=#3399FF;align=center;verticalAlign=middle;fontFamily=Helvetica;fontSize=11;fontColor=default;labelBackgroundColor=default;endArrow=classic;" edge="1" parent="1" source="cWtNn_g0kMUpJ86B1lAH-173" target="cWtNn_g0kMUpJ86B1lAH-176">
          <mxGeometry relative="1" as="geometry" />
        </mxCell>
        <mxCell id="cWtNn_g0kMUpJ86B1lAH-171" style="rounded=0;orthogonalLoop=1;jettySize=auto;html=1;entryX=0.5;entryY=0;entryDx=0;entryDy=0;" edge="1" parent="1" source="cWtNn_g0kMUpJ86B1lAH-173" target="cWtNn_g0kMUpJ86B1lAH-184">
          <mxGeometry relative="1" as="geometry" />
        </mxCell>
        <mxCell id="cWtNn_g0kMUpJ86B1lAH-172" style="rounded=0;orthogonalLoop=1;jettySize=auto;html=1;entryX=0.5;entryY=0;entryDx=0;entryDy=0;" edge="1" parent="1" source="cWtNn_g0kMUpJ86B1lAH-173" target="cWtNn_g0kMUpJ86B1lAH-183">
          <mxGeometry relative="1" as="geometry" />
        </mxCell>
        <mxCell id="cWtNn_g0kMUpJ86B1lAH-173" value="Content Seen?" style="rounded=1;whiteSpace=wrap;html=1;fontFamily=Helvetica;fontSize=11;fontColor=default;labelBackgroundColor=default;" vertex="1" parent="1">
          <mxGeometry x="4710" y="180" width="120" height="60" as="geometry" />
        </mxCell>
        <mxCell id="cWtNn_g0kMUpJ86B1lAH-174" value="Content storage" style="shape=cylinder3;whiteSpace=wrap;html=1;boundedLbl=1;backgroundOutline=1;size=15;fontFamily=Helvetica;fontSize=11;fontColor=default;labelBackgroundColor=default;" vertex="1" parent="1">
          <mxGeometry x="4740" y="50" width="60" height="80" as="geometry" />
        </mxCell>
        <mxCell id="cWtNn_g0kMUpJ86B1lAH-175" value="" style="edgeStyle=orthogonalEdgeStyle;shape=connector;rounded=0;orthogonalLoop=1;jettySize=auto;html=1;strokeColor=#3399FF;align=center;verticalAlign=middle;fontFamily=Helvetica;fontSize=11;fontColor=default;labelBackgroundColor=default;endArrow=classic;" edge="1" parent="1" source="cWtNn_g0kMUpJ86B1lAH-176" target="cWtNn_g0kMUpJ86B1lAH-178">
          <mxGeometry relative="1" as="geometry" />
        </mxCell>
        <mxCell id="cWtNn_g0kMUpJ86B1lAH-176" value="Link Extractor" style="rounded=1;whiteSpace=wrap;html=1;fontFamily=Helvetica;fontSize=11;fontColor=default;labelBackgroundColor=default;" vertex="1" parent="1">
          <mxGeometry x="4710" y="300" width="120" height="60" as="geometry" />
        </mxCell>
        <mxCell id="cWtNn_g0kMUpJ86B1lAH-177" value="" style="edgeStyle=orthogonalEdgeStyle;shape=connector;rounded=0;orthogonalLoop=1;jettySize=auto;html=1;strokeColor=#3399FF;align=center;verticalAlign=middle;fontFamily=Helvetica;fontSize=11;fontColor=default;labelBackgroundColor=default;endArrow=classic;" edge="1" parent="1" source="cWtNn_g0kMUpJ86B1lAH-178" target="cWtNn_g0kMUpJ86B1lAH-181">
          <mxGeometry relative="1" as="geometry" />
        </mxCell>
        <mxCell id="cWtNn_g0kMUpJ86B1lAH-178" value="URL Filter" style="rounded=1;whiteSpace=wrap;html=1;fontFamily=Helvetica;fontSize=11;fontColor=default;labelBackgroundColor=default;" vertex="1" parent="1">
          <mxGeometry x="4710" y="420" width="120" height="60" as="geometry" />
        </mxCell>
        <mxCell id="cWtNn_g0kMUpJ86B1lAH-179" value="" style="edgeStyle=orthogonalEdgeStyle;shape=connector;rounded=0;orthogonalLoop=1;jettySize=auto;html=1;strokeColor=#3399FF;align=center;verticalAlign=middle;fontFamily=Helvetica;fontSize=11;fontColor=default;labelBackgroundColor=default;endArrow=classic;startArrow=classic;startFill=1;" edge="1" parent="1" source="cWtNn_g0kMUpJ86B1lAH-181" target="cWtNn_g0kMUpJ86B1lAH-182">
          <mxGeometry relative="1" as="geometry" />
        </mxCell>
        <mxCell id="cWtNn_g0kMUpJ86B1lAH-180" style="edgeStyle=orthogonalEdgeStyle;shape=connector;rounded=0;orthogonalLoop=1;jettySize=auto;html=1;strokeColor=#3399FF;align=center;verticalAlign=middle;fontFamily=Helvetica;fontSize=11;fontColor=default;labelBackgroundColor=default;endArrow=classic;entryX=0.5;entryY=1;entryDx=0;entryDy=0;" edge="1" parent="1" source="cWtNn_g0kMUpJ86B1lAH-181" target="cWtNn_g0kMUpJ86B1lAH-162">
          <mxGeometry relative="1" as="geometry">
            <mxPoint x="4190" y="280.0000000000002" as="targetPoint" />
          </mxGeometry>
        </mxCell>
        <mxCell id="cWtNn_g0kMUpJ86B1lAH-181" value="URL Seen?" style="rounded=1;whiteSpace=wrap;html=1;fontFamily=Helvetica;fontSize=11;fontColor=default;labelBackgroundColor=default;" vertex="1" parent="1">
          <mxGeometry x="4710" y="540" width="120" height="60" as="geometry" />
        </mxCell>
        <mxCell id="cWtNn_g0kMUpJ86B1lAH-182" value="URL&lt;div&gt;storage&lt;/div&gt;" style="shape=cylinder3;whiteSpace=wrap;html=1;boundedLbl=1;backgroundOutline=1;size=15;fontFamily=Helvetica;fontSize=11;fontColor=default;labelBackgroundColor=default;" vertex="1" parent="1">
          <mxGeometry x="4740" y="640" width="60" height="80" as="geometry" />
        </mxCell>
        <mxCell id="cWtNn_g0kMUpJ86B1lAH-183" value="Web Monitor" style="rounded=1;whiteSpace=wrap;html=1;fontFamily=Helvetica;fontSize=11;fontColor=default;labelBackgroundColor=default;" vertex="1" parent="1">
          <mxGeometry x="4900" y="300" width="120" height="60" as="geometry" />
        </mxCell>
        <mxCell id="cWtNn_g0kMUpJ86B1lAH-184" value="PNG Downloader" style="rounded=1;whiteSpace=wrap;html=1;fontFamily=Helvetica;fontSize=11;fontColor=default;labelBackgroundColor=default;" vertex="1" parent="1">
          <mxGeometry x="4520" y="300" width="120" height="60" as="geometry" />
        </mxCell>
      </root>
    </mxGraphModel>
  </diagram>
</mxfile>
